<?xml version="1.0" encoding="utf-8"?>
<!-- Generator: Adobe Illustrator 15.0.2, SVG Export Plug-In . SVG Version: 6.00 Build 0)  -->
<!DOCTYPE svg PUBLIC "-//W3C//DTD SVG 1.1//EN" "http://www.w3.org/Graphics/SVG/1.1/DTD/svg11.dtd">
<svg version="1.1" id="Calque_1" xmlns="http://www.w3.org/2000/svg" xmlns:xlink="http://www.w3.org/1999/xlink" x="0px" y="0px"
	 width="32px" height="34px" viewBox="0 0 32 34" enable-background="new 0 0 32 34" xml:space="preserve">
<rect fill="#D31147" width="32" height="34"/>
<g>
	<path fill="#42B348" d="M15.999,10.978c2.035,0,3.69,1.654,3.69,3.689c0,2.034-1.655,3.689-3.69,3.689s-3.69-1.655-3.69-3.689
		C12.309,12.632,13.964,10.978,15.999,10.978 M15.999,9.978c-2.591,0-4.69,2.1-4.69,4.689c0,2.592,2.102,4.689,4.69,4.689
		c2.592,0,4.69-2.104,4.69-4.689S18.591,9.978,15.999,9.978L15.999,9.978z"/>
	<path fill="#42B348" d="M18.924,21.036c1.092,0.359,1.855,0.995,2.371,1.986H10.706c0.515-0.988,1.279-1.625,2.37-1.985
		c0.915,0.421,1.917,0.642,2.923,0.642C17.006,21.679,18.009,21.458,18.924,21.036 M18.83,19.967
		c-0.844,0.452-1.809,0.712-2.831,0.712s-1.985-0.259-2.83-0.712c-1.821,0.479-3.251,1.613-3.905,4.056h13.473
		C22.082,21.58,20.654,20.444,18.83,19.967L18.83,19.967z"/>
</g>
</svg>
