<?xml version="1.0" encoding="utf-8"?>
<!-- Generator: Adobe Illustrator 13.0.2, SVG Export Plug-In . SVG Version: 6.00 Build 14948)  -->
<!DOCTYPE svg PUBLIC "-//W3C//DTD SVG 1.1//EN" "http://www.w3.org/Graphics/SVG/1.1/DTD/svg11.dtd">
<svg version="1.1" id="Calque_1" xmlns="http://www.w3.org/2000/svg" xmlns:xlink="http://www.w3.org/1999/xlink" x="0px" y="0px"
	 width="80px" height="24px" viewBox="0 0 80 24" enable-background="new 0 0 80 24" xml:space="preserve">
<g>
	<linearGradient id="SVGID_1_" gradientUnits="userSpaceOnUse" x1="40" y1="0.499" x2="40" y2="23.499">
		<stop  offset="0" style="stop-color:#EEEBE8"/>
		<stop  offset="0.93" style="stop-color:#DFFFEF"/>
		<stop  offset="1" style="stop-color:#FFFFFF"/>
	</linearGradient>
	<path fill="url(#SVGID_1_)" d="M76.965,23.499H3.036c-1.398,0-2.535-1.135-2.535-2.533V3.034c0-1.397,1.137-2.535,2.535-2.535
		h73.929c1.398,0,2.535,1.138,2.535,2.535v17.932C79.5,22.364,78.363,23.499,76.965,23.499L76.965,23.499z"/>
	<path fill="#C0C0C0" d="M76.965,0C78.641,0,80,1.358,80,3.035v17.931C80,22.643,78.641,24,76.965,24H3.035
		C1.358,24,0,22.643,0,20.966V3.035C0,1.358,1.358,0,3.035,0H76.965 M76.965,1H3.035C1.913,1,1,1.913,1,3.035v17.931
		C1,22.088,1.913,23,3.035,23h73.93C78.087,23,79,22.088,79,20.966V3.035C79,1.913,78.087,1,76.965,1L76.965,1z"/>
</g>
</svg>
